<svg width="60" height="142" viewBox="0 0 60 142" fill="none" xmlns="http://www.w3.org/2000/svg">
<path d="M36.103 141.979C23.892 141.979 13.9895 137.289 13.9895 131.502C13.9895 125.715 23.892 121.022 36.103 121.022C48.3175 121.022 58.2166 125.715 58.2166 131.502C58.2166 137.289 48.3175 141.979 36.103 141.979Z" fill="black"/>
<path d="M36.103 141.979C23.892 141.979 13.9895 137.289 13.9895 131.502C13.9895 125.715 23.892 121.022 36.103 121.022C48.3175 121.022 58.2166 125.715 58.2166 131.502C58.2166 137.289 48.3175 141.979 36.103 141.979Z" fill="url(#paint0_radial_2008_859)"/>
<path d="M30.6224 21.8118C32.8299 23.027 33.1851 34.9281 27.447 48.4031C27.447 48.4031 18.4811 57.5779 11.6357 61.5508C11.6357 61.5508 11.9664 57.7973 8.5437 56.6935C8.5437 56.6935 20.908 45.9797 21.3502 43.9428C21.7924 41.9024 23.777 28.3265 26.3153 23.9114C28.8571 19.4964 30.6224 21.8118 30.6224 21.8118Z" fill="#805FB6"/>
<path d="M35.6852 122.474C35.6852 122.474 36.2667 125.924 35.8454 126.495C35.4275 127.07 26.5557 133.8 24.5292 133.609C22.5027 133.417 20.4762 132.804 20.8941 131.429C21.3154 130.054 28.2896 121.415 28.2896 121.415L35.6852 122.474Z" fill="#3B315E"/>
<path d="M49.8881 126.321C49.8881 126.321 50.2572 130.015 49.6966 131.213C49.136 132.407 42.1478 138.313 40.5044 138.612C38.8609 138.912 34.0037 138.536 34.8602 137.042C35.7202 135.548 41.521 126.321 41.521 126.321H49.8881Z" fill="#3B315E"/>
<path d="M29.5013 60.5654C29.5013 60.5654 27.9066 81.5578 27.7638 89.1344C27.6245 96.7145 27.7638 121.478 27.7638 121.478C27.7638 121.478 31.3676 124.396 35.8697 122.637L38.119 94.8308L42.1789 64.3224L29.5013 60.5654Z" fill="#181E2B"/>
<path d="M36.9004 64.6775C36.9004 64.6775 36.3851 89.1831 36.9004 94.8551C37.4192 100.524 41.211 126.728 41.211 126.728C41.211 126.728 45.5633 129.949 50.5947 126.728L48.61 94.2562C48.61 94.2562 53.422 73.7479 54.1636 64.3224L36.9004 64.6775Z" fill="#1E293F"/>
<path d="M41.775 18.0096C43.4811 18.0757 51.9212 22.7206 54.4317 26.0562C54.4317 26.0562 56.8272 30.917 55.9393 41.9163C55.0514 52.9156 54.1635 64.3223 54.1635 64.3223C54.1635 64.3223 42.346 67.0556 34.4873 63.9114C34.4873 63.9114 30.8662 62.1357 29.5013 60.5654C29.5013 60.5654 30.7373 49.2944 29.846 46.2896C28.9546 43.2812 26.4407 26.2025 28.6517 21.3522C28.6517 21.3522 33.0772 17.6718 41.775 18.0096Z" fill="#6D4FAC"/>
<path d="M36.3748 18.8696C36.9249 20.0743 37.7153 20.6558 37.6839 22.9956C37.6839 22.9956 41.8796 25.4051 45.4903 20.2449L45.1804 14.364L38.1192 14.9141L36.3748 18.8696Z" fill="#F68C84"/>
<path d="M31.7159 4.75399C31.6219 6.16416 31.7159 9.91765 32.2765 12.832C32.8405 15.7429 34.4388 20.0604 35.9395 20.2485C37.4436 20.4365 43.92 17.7137 44.296 15.8334C44.6721 13.9567 43.4534 4.0959 43.4534 4.0959L31.7159 4.75399Z" fill="#FAB9AC"/>
<path d="M8.54392 56.6936C8.54392 56.6936 2.42625 55.743 2.82667 57.1601C3.22709 58.5807 5.67829 58.626 5.67829 58.626C5.67829 58.626 -0.766652 61.509 0.0759679 62.5745C0.918588 63.6399 3.3594 66.4324 6.95272 64.7925C10.546 63.149 11.6359 61.5508 11.6359 61.5508C11.6359 61.5508 12.179 58.048 8.54392 56.6936Z" fill="#FAB9AC"/>
<path d="M44.9122 65.9797C44.9122 65.9797 37.4401 66.6587 39.2089 68.0236C40.9742 69.3919 42.6525 68.5946 42.6525 68.5946C42.6525 68.5946 38.1539 72.6928 38.9373 73.72C39.7207 74.7437 43.7214 77.0208 46.3921 73.72C49.0592 70.4157 48.9791 69.594 48.9791 69.594C48.9791 69.594 49.4631 65.9797 44.9122 65.9797Z" fill="#FAB9AC"/>
<path d="M53.8014 25.3181C55.9846 26.5542 58.9755 41.4533 59.8982 46.3001C60.0897 47.3029 60.0096 48.3335 59.6649 49.2945C58.1816 53.4623 53.683 65.2695 48.979 69.594C48.979 69.594 49.3272 66.1921 44.9121 65.9798L53.582 47.5988C53.582 47.5988 48.8466 36.3627 48.6934 32.7694C48.5542 29.465 50.4135 23.3961 53.8014 25.3181Z" fill="#805FB6"/>
<path d="M32.1128 5.74632C32.1128 5.74632 28.4568 4.4859 31.6811 2.76236C34.9088 1.03882 40.7305 -0.824036 43.4325 0.387665C46.1344 1.59937 45.4903 3.1349 45.4903 3.1349C45.4903 3.1349 46.4582 3.12792 46.8865 3.99143C47.9938 6.22333 47.8893 13.7443 44.3691 14.8271L40.5216 8.58407C40.5216 8.58407 41.3851 6.48798 40.452 5.60358C39.5223 4.71918 34.39 6.67599 32.1128 5.74632Z" fill="#2E2D2D"/>
<path d="M41.0056 10.6941C41.3991 9.99424 42.3461 8.07228 43.5648 8.71295C44.7835 9.35362 44.5084 12.4316 42.6177 13.2533L41.0056 10.6941Z" fill="#FAB9AC"/>
<defs>
<radialGradient id="paint0_radial_2008_859" cx="0" cy="0" r="1" gradientUnits="userSpaceOnUse" gradientTransform="translate(-65.3072 228.341) scale(1121.12 717.049)">
<stop stop-color="#B2C695"/>
<stop offset="1" stop-color="#73A550"/>
</radialGradient>
</defs>
</svg>
